<svg xmlns="http://www.w3.org/2000/svg" xmlns:xlink="http://www.w3.org/1999/xlink" width="500" zoomAndPan="magnify" viewBox="0 0 375 374.999991" height="500" preserveAspectRatio="xMidYMid meet" version="1.0"><defs><g/></defs><rect x="-37.5" width="450" fill="#ffffff" y="-37.499999" height="449.999989" fill-opacity="1"/><rect x="-37.5" width="450" fill="#ffffff" y="-37.499999" height="449.999989" fill-opacity="1"/><rect x="-37.5" width="450" fill="#ffffff" y="-37.499999" height="449.999989" fill-opacity="1"/><g fill="#545454" fill-opacity="1"><g transform="translate(107.499868, 223.69254)"><g><path d="M 22.824219 -29.101562 L 22.824219 -28.894531 C 24.527344 -28.683594 25.984375 -27.394531 25.984375 -21.742188 L 25.984375 -8.523438 L 10.019531 -27.355469 C 9.4375 -28.226562 9.019531 -28.683594 8.773438 -29.101562 L 0.414062 -29.101562 C 1.746094 -28.4375 2.785156 -27.480469 4.199219 -25.816406 L 4.199219 -6.527344 C 4.199219 -0.871094 2.742188 -0.414062 1.039062 -0.207031 L 1.039062 0 L 8.191406 0 L 8.191406 -0.207031 C 6.484375 -0.414062 5.03125 -1.703125 5.03125 -7.359375 L 5.03125 -24.820312 L 26.898438 1.164062 L 26.980469 1.082031 C 26.898438 -0.414062 26.773438 -2.578125 26.773438 -6.902344 L 26.773438 -22.574219 C 26.773438 -28.226562 28.226562 -28.683594 29.933594 -28.894531 L 29.933594 -29.101562 Z M 22.824219 -29.101562 "/></g></g></g><g fill="#545454" fill-opacity="1"><g transform="translate(140.129855, 223.69254)"><g><path d="M 29.558594 -5.238281 L 20.785156 -27.394531 C 19.914062 -29.558594 19.832031 -30.058594 19.832031 -30.304688 L 14.925781 -27.6875 L 14.132812 -27.230469 L 14.21875 -26.023438 L 5.113281 -5.03125 C 3.574219 -1.453125 2.578125 -0.664062 0.832031 -0.167969 L 0.832031 0 L 8.480469 0 L 8.480469 -0.167969 C 6.152344 -0.664062 4.488281 -1.414062 6.027344 -4.988281 L 6.941406 -7.066406 L 22.824219 -7.066406 L 23.65625 -4.988281 C 25.109375 -1.332031 23.445312 -0.414062 20.535156 -0.167969 L 20.535156 0 L 33.671875 0 L 33.671875 -0.167969 C 31.804688 -0.414062 31.054688 -1.414062 29.558594 -5.238281 Z M 7.234375 -7.816406 L 15.175781 -26.148438 L 22.53125 -7.816406 Z M 7.234375 -7.816406 "/></g></g></g><g fill="#545454" fill-opacity="1"><g transform="translate(176.70865, 223.69254)"><g><path d="M 17.917969 -29.683594 C 8.855469 -29.683594 1.871094 -23.902344 1.871094 -14.550781 C 1.871094 -5.195312 8.855469 0.582031 17.917969 0.582031 C 26.9375 0.582031 33.921875 -5.195312 33.921875 -14.550781 C 33.921875 -23.902344 26.9375 -29.683594 17.917969 -29.683594 Z M 19.664062 -0.167969 C 12.761719 -0.167969 7.898438 -9.019531 7.898438 -17.335938 C 7.898438 -24.238281 11.140625 -28.933594 16.128906 -28.933594 C 23.03125 -28.933594 27.894531 -20.078125 27.894531 -11.804688 C 27.894531 -4.90625 24.652344 -0.167969 19.664062 -0.167969 Z M 19.664062 -0.167969 "/></g></g></g><g fill="#545454" fill-opacity="1"><g transform="translate(214.576002, 223.69254)"><g><path d="M 36.957031 -28.894531 L 36.957031 -29.101562 L 28.101562 -29.101562 L 18.789062 -7.027344 L 7.734375 -29.101562 L 0.414062 -29.101562 C 2.203125 -27.769531 2.992188 -26.523438 3.78125 -24.945312 L 3.78125 -6.527344 C 3.78125 -0.871094 2.328125 -0.414062 0.625 -0.207031 L 0.625 0 L 7.773438 0 L 7.773438 -0.207031 C 6.070312 -0.414062 4.613281 -1.703125 4.613281 -7.359375 L 4.613281 -23.28125 L 16.503906 0.457031 L 28.101562 -26.9375 L 28.101562 -2.371094 C 28.101562 -0.871094 26.648438 -0.414062 24.945312 -0.207031 L 24.945312 0 L 36.957031 0 L 36.957031 -0.207031 C 35.253906 -0.414062 33.796875 -0.871094 33.796875 -2.371094 L 33.796875 -26.730469 C 33.796875 -28.226562 35.253906 -28.683594 36.957031 -28.894531 Z M 36.957031 -28.894531 "/></g></g></g><g fill="#545454" fill-opacity="1"><g transform="translate(254.230705, 223.69254)"><g><path d="M 0.625 0 L 12.636719 0 L 12.636719 -0.207031 C 10.933594 -0.414062 9.480469 -0.871094 9.480469 -2.371094 L 9.480469 -26.730469 C 9.480469 -28.226562 10.933594 -28.683594 12.636719 -28.894531 L 12.636719 -29.101562 L 0.625 -29.101562 L 0.625 -28.894531 C 2.328125 -28.683594 3.78125 -28.226562 3.78125 -26.730469 L 3.78125 -2.371094 C 3.78125 -0.871094 2.328125 -0.414062 0.625 -0.207031 Z M 0.625 0 "/></g></g></g><g fill="#545454" fill-opacity="1"><g transform="translate(153.210815, 243.940825)"><g><path d="M 4.53125 -0.703125 C 5.0625 -0.703125 5.503906 -0.800781 5.859375 -1 C 6.222656 -1.207031 6.507812 -1.476562 6.71875 -1.8125 C 6.9375 -2.144531 7.085938 -2.519531 7.171875 -2.9375 C 7.253906 -3.363281 7.296875 -3.796875 7.296875 -4.234375 L 7.296875 -8.53125 L 8.140625 -8.53125 L 8.140625 -4.234375 C 8.140625 -3.648438 8.070312 -3.097656 7.9375 -2.578125 C 7.8125 -2.066406 7.601562 -1.613281 7.3125 -1.21875 C 7.03125 -0.832031 6.660156 -0.519531 6.203125 -0.28125 C 5.753906 -0.0507812 5.203125 0.0625 4.546875 0.0625 C 3.867188 0.0625 3.300781 -0.0546875 2.84375 -0.296875 C 2.382812 -0.546875 2.015625 -0.867188 1.734375 -1.265625 C 1.453125 -1.671875 1.25 -2.128906 1.125 -2.640625 C 1.007812 -3.148438 0.953125 -3.679688 0.953125 -4.234375 L 0.953125 -8.53125 L 1.78125 -8.53125 L 1.78125 -4.234375 C 1.78125 -3.785156 1.820312 -3.347656 1.90625 -2.921875 C 2 -2.492188 2.148438 -2.113281 2.359375 -1.78125 C 2.566406 -1.457031 2.847656 -1.195312 3.203125 -1 C 3.554688 -0.800781 4 -0.703125 4.53125 -0.703125 Z M 4.53125 -0.703125 "/></g></g></g><g fill="#545454" fill-opacity="1"><g transform="translate(162.880711, 243.940825)"><g><path d="M 1.015625 -8.53125 L 3.8125 -4.8125 L 6.609375 -8.53125 L 7.53125 -8.53125 L 4.25 -4.203125 L 7.4375 0 L 6.515625 0 L 3.8125 -3.609375 L 1.109375 0 L 0.15625 0 L 3.34375 -4.203125 L 0.0625 -8.53125 Z M 1.015625 -8.53125 "/></g></g></g><g fill="#545454" fill-opacity="1"><g transform="translate(171.073174, 243.940825)"><g/></g></g><g fill="#545454" fill-opacity="1"><g transform="translate(174.737246, 243.940825)"><g><path d="M 1.0625 0 L 1.0625 -8.53125 L 3.96875 -8.53125 C 4.644531 -8.53125 5.238281 -8.414062 5.75 -8.1875 C 6.257812 -7.96875 6.679688 -7.664062 7.015625 -7.28125 C 7.359375 -6.894531 7.613281 -6.441406 7.78125 -5.921875 C 7.957031 -5.410156 8.046875 -4.863281 8.046875 -4.28125 C 8.046875 -3.625 7.945312 -3.035156 7.75 -2.515625 C 7.5625 -1.992188 7.289062 -1.546875 6.9375 -1.171875 C 6.582031 -0.796875 6.15625 -0.503906 5.65625 -0.296875 C 5.15625 -0.0976562 4.59375 0 3.96875 0 Z M 7.203125 -4.28125 C 7.203125 -4.789062 7.128906 -5.257812 6.984375 -5.6875 C 6.847656 -6.113281 6.640625 -6.484375 6.359375 -6.796875 C 6.085938 -7.109375 5.75 -7.347656 5.34375 -7.515625 C 4.945312 -7.691406 4.488281 -7.78125 3.96875 -7.78125 L 1.90625 -7.78125 L 1.90625 -0.75 L 3.96875 -0.75 C 4.5 -0.75 4.960938 -0.835938 5.359375 -1.015625 C 5.765625 -1.191406 6.101562 -1.4375 6.375 -1.75 C 6.644531 -2.070312 6.847656 -2.445312 6.984375 -2.875 C 7.128906 -3.300781 7.203125 -3.769531 7.203125 -4.28125 Z M 7.203125 -4.28125 "/></g></g></g><g fill="#545454" fill-opacity="1"><g transform="translate(183.926684, 243.940825)"><g><path d="M 6.796875 -0.75 L 6.796875 0 L 1.0625 0 L 1.0625 -8.53125 L 6.6875 -8.53125 L 6.6875 -7.78125 L 1.90625 -7.78125 L 1.90625 -4.703125 L 6.078125 -4.703125 L 6.078125 -4 L 1.90625 -4 L 1.90625 -0.75 Z M 6.796875 -0.75 "/></g></g></g><g fill="#545454" fill-opacity="1"><g transform="translate(191.842888, 243.940825)"><g><path d="M 6.0625 -6.9375 C 5.820312 -7.207031 5.5 -7.425781 5.09375 -7.59375 C 4.695312 -7.757812 4.238281 -7.84375 3.71875 -7.84375 C 2.96875 -7.84375 2.421875 -7.703125 2.078125 -7.421875 C 1.734375 -7.140625 1.5625 -6.753906 1.5625 -6.265625 C 1.5625 -6.003906 1.609375 -5.789062 1.703125 -5.625 C 1.796875 -5.46875 1.9375 -5.328125 2.125 -5.203125 C 2.320312 -5.078125 2.566406 -4.972656 2.859375 -4.890625 C 3.160156 -4.804688 3.515625 -4.71875 3.921875 -4.625 C 4.378906 -4.53125 4.789062 -4.421875 5.15625 -4.296875 C 5.519531 -4.179688 5.828125 -4.03125 6.078125 -3.84375 C 6.335938 -3.664062 6.535156 -3.445312 6.671875 -3.1875 C 6.816406 -2.9375 6.890625 -2.617188 6.890625 -2.234375 C 6.890625 -1.835938 6.8125 -1.492188 6.65625 -1.203125 C 6.5 -0.921875 6.285156 -0.679688 6.015625 -0.484375 C 5.742188 -0.296875 5.421875 -0.15625 5.046875 -0.0625 C 4.671875 0.03125 4.257812 0.078125 3.8125 0.078125 C 2.488281 0.078125 1.347656 -0.335938 0.390625 -1.171875 L 0.8125 -1.84375 C 0.957031 -1.6875 1.132812 -1.535156 1.34375 -1.390625 C 1.5625 -1.242188 1.800781 -1.117188 2.0625 -1.015625 C 2.320312 -0.910156 2.597656 -0.828125 2.890625 -0.765625 C 3.191406 -0.703125 3.503906 -0.671875 3.828125 -0.671875 C 4.515625 -0.671875 5.046875 -0.789062 5.421875 -1.03125 C 5.804688 -1.28125 6 -1.65625 6 -2.15625 C 6 -2.414062 5.941406 -2.632812 5.828125 -2.8125 C 5.722656 -3 5.5625 -3.15625 5.34375 -3.28125 C 5.125 -3.414062 4.851562 -3.53125 4.53125 -3.625 C 4.21875 -3.71875 3.847656 -3.816406 3.421875 -3.921875 C 2.972656 -4.023438 2.582031 -4.128906 2.25 -4.234375 C 1.914062 -4.347656 1.628906 -4.488281 1.390625 -4.65625 C 1.160156 -4.832031 0.988281 -5.035156 0.875 -5.265625 C 0.757812 -5.503906 0.703125 -5.796875 0.703125 -6.140625 C 0.703125 -6.535156 0.773438 -6.882812 0.921875 -7.1875 C 1.066406 -7.5 1.273438 -7.753906 1.546875 -7.953125 C 1.816406 -8.160156 2.132812 -8.316406 2.5 -8.421875 C 2.875 -8.535156 3.285156 -8.59375 3.734375 -8.59375 C 4.304688 -8.59375 4.8125 -8.503906 5.25 -8.328125 C 5.695312 -8.160156 6.101562 -7.921875 6.46875 -7.609375 Z M 6.0625 -6.9375 "/></g></g></g><g fill="#545454" fill-opacity="1"><g transform="translate(199.735059, 243.940825)"><g><path d="M 1.0625 0 L 1.0625 -8.53125 L 1.90625 -8.53125 L 1.90625 0 Z M 1.0625 0 "/></g></g></g><g fill="#545454" fill-opacity="1"><g transform="translate(203.315048, 243.940825)"><g><path d="M 7.234375 -1.25 C 6.441406 -0.375 5.53125 0.0625 4.5 0.0625 C 3.914062 0.0625 3.378906 -0.0625 2.890625 -0.3125 C 2.410156 -0.5625 1.992188 -0.890625 1.640625 -1.296875 C 1.285156 -1.703125 1.003906 -2.160156 0.796875 -2.671875 C 0.597656 -3.191406 0.5 -3.726562 0.5 -4.28125 C 0.5 -4.84375 0.597656 -5.382812 0.796875 -5.90625 C 0.992188 -6.425781 1.269531 -6.882812 1.625 -7.28125 C 1.976562 -7.675781 2.394531 -7.992188 2.875 -8.234375 C 3.351562 -8.472656 3.878906 -8.59375 4.453125 -8.59375 C 4.867188 -8.59375 5.25 -8.546875 5.59375 -8.453125 C 5.9375 -8.359375 6.238281 -8.226562 6.5 -8.0625 C 6.769531 -7.90625 7.003906 -7.710938 7.203125 -7.484375 C 7.398438 -7.253906 7.566406 -7.003906 7.703125 -6.734375 L 7.046875 -6.296875 C 6.765625 -6.828125 6.398438 -7.210938 5.953125 -7.453125 C 5.503906 -7.703125 5 -7.828125 4.4375 -7.828125 C 3.957031 -7.828125 3.523438 -7.726562 3.140625 -7.53125 C 2.765625 -7.332031 2.441406 -7.066406 2.171875 -6.734375 C 1.910156 -6.398438 1.707031 -6.019531 1.5625 -5.59375 C 1.414062 -5.164062 1.34375 -4.722656 1.34375 -4.265625 C 1.34375 -3.785156 1.425781 -3.328125 1.59375 -2.890625 C 1.757812 -2.460938 1.984375 -2.085938 2.265625 -1.765625 C 2.554688 -1.441406 2.894531 -1.179688 3.28125 -0.984375 C 3.675781 -0.796875 4.097656 -0.703125 4.546875 -0.703125 C 5.035156 -0.703125 5.503906 -0.8125 5.953125 -1.03125 C 6.398438 -1.257812 6.828125 -1.625 7.234375 -2.125 L 7.234375 -3.546875 L 5.328125 -3.546875 L 5.328125 -4.1875 L 7.9375 -4.1875 L 7.9375 0 L 7.234375 0 Z M 7.234375 -1.25 "/></g></g></g><g fill="#545454" fill-opacity="1"><g transform="translate(212.516492, 243.940825)"><g><path d="M 1.90625 -6.96875 L 1.90625 0 L 1.0625 0 L 1.0625 -8.53125 L 1.71875 -8.53125 L 7.359375 -1.4375 L 7.359375 -8.515625 L 8.203125 -8.515625 L 8.203125 0 L 7.46875 0 Z M 1.90625 -6.96875 "/></g></g></g></svg>