<svg width="500" height="500" viewBox="0 0 500 500" fill="none" xmlns="http://www.w3.org/2000/svg">
<g clip-path="url(#clip0_7_3)">
<path d="M173.765 259.455V259.731C176.036 260.012 177.979 261.731 177.979 269.267V286.892L156.693 261.783C155.917 260.621 155.359 260.012 155.031 259.455H143.885C145.661 260.34 147.047 261.616 148.932 263.835V289.554C148.932 297.095 146.989 297.705 144.719 297.981V298.257H154.255V297.981C151.979 297.705 150.042 295.986 150.042 288.444V265.163L179.198 299.809L179.307 299.699C179.198 297.705 179.031 294.819 179.031 289.054V268.158C179.031 260.621 180.969 260.012 183.245 259.731V259.455H173.765Z" fill="#545454"/>
<path d="M226.251 291.272L214.553 261.731C213.392 258.845 213.282 258.179 213.282 257.85L206.741 261.34L205.684 261.949L205.798 263.559L193.657 291.548C191.605 296.319 190.277 297.371 187.949 298.033V298.257H198.147V298.033C195.043 297.371 192.824 296.371 194.876 291.606L196.095 288.835H217.272L218.381 291.606C220.319 296.481 218.1 297.705 214.22 298.033V298.257H231.736V298.033C229.246 297.705 228.246 296.371 226.251 291.272ZM196.486 287.835L207.074 263.392L216.881 287.835H196.486Z" fill="#545454"/>
<path d="M259.502 258.679C247.419 258.679 238.106 266.387 238.106 278.856C238.106 291.33 247.419 299.033 259.502 299.033C271.528 299.033 280.841 291.33 280.841 278.856C280.841 266.387 271.528 258.679 259.502 258.679ZM261.83 298.033C252.627 298.033 246.143 286.231 246.143 275.142C246.143 265.939 250.466 259.679 257.117 259.679C266.32 259.679 272.804 271.486 272.804 282.517C272.804 291.715 268.481 298.033 261.83 298.033Z" fill="#545454"/>
<path d="M335.377 259.731V259.455H323.57L311.153 288.887L296.414 259.455H286.653C289.039 261.231 290.091 262.892 291.143 264.996V289.554C291.143 297.095 289.206 297.705 286.935 297.981V298.257H296.466V297.981C294.195 297.705 292.252 295.986 292.252 288.444V267.215L308.107 298.866L323.57 262.34V295.095C323.57 297.095 321.633 297.705 319.362 297.981V298.257H335.377V297.981C333.107 297.705 331.164 297.095 331.164 295.095V262.616C331.164 260.621 333.107 260.012 335.377 259.731Z" fill="#545454"/>
<path d="M339.808 298.257H355.823V297.981C353.552 297.705 351.615 297.095 351.615 295.095V262.616C351.615 260.621 353.552 260.012 355.823 259.731V259.455H339.808V259.731C342.078 260.012 344.016 260.621 344.016 262.616V295.095C344.016 297.095 342.078 297.705 339.808 297.981V298.257Z" fill="#545454"/>
<path d="M210.323 324.317C211.031 324.317 211.62 324.187 212.094 323.921C212.578 323.645 212.958 323.286 213.239 322.838C213.531 322.395 213.729 321.895 213.844 321.338C213.953 320.77 214.01 320.192 214.01 319.609V313.879H215.135V319.609C215.135 320.39 215.042 321.124 214.864 321.817C214.698 322.499 214.417 323.103 214.031 323.629C213.656 324.145 213.161 324.562 212.552 324.879C211.953 325.187 211.219 325.338 210.344 325.338C209.437 325.338 208.682 325.182 208.073 324.859C207.458 324.525 206.969 324.098 206.594 323.567C206.219 323.025 205.948 322.416 205.781 321.734C205.625 321.057 205.552 320.348 205.552 319.609V313.879H206.656V319.609C206.656 320.208 206.708 320.791 206.823 321.359C206.948 321.932 207.146 322.437 207.427 322.879C207.703 323.312 208.078 323.661 208.552 323.921C209.021 324.187 209.614 324.317 210.323 324.317Z" fill="#545454"/>
<path d="M218.528 313.879L222.258 318.838L225.987 313.879H227.216L222.841 319.65L227.091 325.254H225.862L222.258 320.442L218.653 325.254H217.383L221.633 319.65L217.258 313.879H218.528Z" fill="#545454"/>
<path d="M234.4 325.254V313.879H238.275C239.176 313.879 239.967 314.036 240.65 314.338C241.327 314.629 241.889 315.036 242.337 315.546C242.795 316.062 243.134 316.666 243.358 317.359C243.592 318.041 243.712 318.77 243.712 319.546C243.712 320.421 243.577 321.208 243.316 321.9C243.066 322.598 242.702 323.192 242.233 323.692C241.759 324.192 241.191 324.583 240.525 324.859C239.858 325.124 239.108 325.254 238.275 325.254H234.4ZM242.587 319.546C242.587 318.869 242.488 318.244 242.295 317.671C242.113 317.103 241.837 316.609 241.462 316.192C241.098 315.775 240.65 315.458 240.108 315.234C239.577 314.999 238.967 314.879 238.275 314.879H235.525V324.254H238.275C238.983 324.254 239.598 324.14 240.129 323.9C240.67 323.666 241.118 323.338 241.483 322.921C241.842 322.494 242.113 321.994 242.295 321.421C242.488 320.853 242.587 320.228 242.587 319.546Z" fill="#545454"/>
<path d="M254.298 324.254V325.254H246.652V313.879H254.152V314.879H247.777V318.984H253.34V319.921H247.777V324.254H254.298Z" fill="#545454"/>
<path d="M263.874 316.004C263.551 315.645 263.124 315.353 262.582 315.129C262.051 314.911 261.442 314.796 260.749 314.796C259.749 314.796 259.02 314.984 258.561 315.359C258.103 315.734 257.874 316.249 257.874 316.9C257.874 317.249 257.936 317.536 258.061 317.754C258.186 317.963 258.374 318.15 258.624 318.317C258.884 318.484 259.212 318.624 259.603 318.734C260.004 318.848 260.478 318.963 261.02 319.088C261.629 319.213 262.176 319.359 262.666 319.525C263.15 319.682 263.561 319.879 263.895 320.129C264.238 320.369 264.504 320.661 264.686 321.004C264.879 321.338 264.978 321.765 264.978 322.275C264.978 322.807 264.874 323.265 264.666 323.65C264.457 324.025 264.171 324.348 263.811 324.609C263.447 324.859 263.02 325.046 262.52 325.171C262.02 325.296 261.468 325.359 260.874 325.359C259.108 325.359 257.587 324.807 256.311 323.692L256.874 322.796C257.067 323.004 257.301 323.208 257.582 323.4C257.874 323.598 258.192 323.765 258.541 323.9C258.884 324.041 259.254 324.15 259.645 324.234C260.046 324.317 260.462 324.359 260.895 324.359C261.811 324.359 262.52 324.202 263.02 323.879C263.53 323.546 263.791 323.046 263.791 322.379C263.791 322.036 263.712 321.744 263.561 321.504C263.421 321.254 263.207 321.046 262.916 320.879C262.624 320.702 262.259 320.546 261.832 320.421C261.416 320.296 260.921 320.166 260.353 320.025C259.754 319.89 259.233 319.749 258.791 319.609C258.343 319.458 257.962 319.27 257.645 319.046C257.337 318.812 257.108 318.541 256.957 318.234C256.801 317.916 256.728 317.525 256.728 317.067C256.728 316.541 256.822 316.077 257.02 315.671C257.212 315.254 257.488 314.916 257.853 314.65C258.212 314.374 258.634 314.166 259.124 314.025C259.624 313.874 260.171 313.796 260.77 313.796C261.53 313.796 262.207 313.916 262.791 314.15C263.384 314.374 263.926 314.692 264.416 315.109L263.874 316.004Z" fill="#545454"/>
<path d="M267.73 325.254V313.879H268.855V325.254H267.73Z" fill="#545454"/>
<path d="M280.733 323.588C279.675 324.754 278.462 325.338 277.087 325.338C276.306 325.338 275.592 325.171 274.941 324.838C274.3 324.504 273.743 324.067 273.274 323.525C272.8 322.984 272.425 322.374 272.149 321.692C271.884 320.999 271.753 320.286 271.753 319.546C271.753 318.796 271.884 318.077 272.149 317.379C272.41 316.687 272.779 316.077 273.253 315.546C273.722 315.02 274.279 314.598 274.92 314.275C275.556 313.958 276.259 313.796 277.024 313.796C277.576 313.796 278.087 313.859 278.545 313.984C279.003 314.109 279.404 314.286 279.753 314.504C280.113 314.713 280.425 314.973 280.691 315.275C280.951 315.583 281.175 315.916 281.358 316.275L280.483 316.859C280.108 316.15 279.618 315.64 279.024 315.317C278.425 314.984 277.753 314.817 277.003 314.817C276.363 314.817 275.785 314.952 275.274 315.213C274.774 315.478 274.342 315.833 273.983 316.275C273.634 316.723 273.363 317.228 273.17 317.796C272.972 318.369 272.878 318.958 272.878 319.567C272.878 320.208 272.988 320.817 273.212 321.4C273.431 321.973 273.733 322.473 274.108 322.9C274.493 323.333 274.946 323.682 275.462 323.942C275.988 324.192 276.55 324.317 277.149 324.317C277.8 324.317 278.425 324.171 279.024 323.879C279.618 323.577 280.191 323.088 280.733 322.421V320.525H278.191V319.671H281.67V325.254H280.733V323.588Z" fill="#545454"/>
<path d="M285.897 315.963V325.254H284.772V313.879H285.647L293.168 323.338V313.9H294.293V325.254H293.314L285.897 315.963Z" fill="#545454"/>
</g>
<defs>
<clipPath id="clip0_7_3">
<rect width="500" height="500" fill="white"/>
</clipPath>
</defs>
</svg>
